<?xml version="1.0" encoding="UTF-8" standalone="no"?>
<!-- Created with Inkscape (http://www.inkscape.org/) -->

<svg
   xmlns:dc="http://purl.org/dc/elements/1.1/"
   xmlns:cc="http://creativecommons.org/ns#"
   xmlns:rdf="http://www.w3.org/1999/02/22-rdf-syntax-ns#"
   xmlns:svg="http://www.w3.org/2000/svg"
   xmlns="http://www.w3.org/2000/svg"
   xmlns:sodipodi="http://sodipodi.sourceforge.net/DTD/sodipodi-0.dtd"
   xmlns:inkscape="http://www.inkscape.org/namespaces/inkscape"
   width="744.09448819"
   height="1052.3622047"
   id="svg2"
   version="1.1"
   inkscape:version="0.48.3.1 r9886"
   sodipodi:docname="新建文档 1">
  <defs
     id="defs4" />
  <sodipodi:namedview
     id="base"
     pagecolor="#ffffff"
     bordercolor="#666666"
     borderopacity="1.0"
     inkscape:pageopacity="0.0"
     inkscape:pageshadow="2"
     inkscape:zoom="0.7"
     inkscape:cx="491.6511"
     inkscape:cy="734.31509"
     inkscape:document-units="px"
     inkscape:current-layer="layer1"
     showgrid="false"
     inkscape:window-width="1086"
     inkscape:window-height="704"
     inkscape:window-x="72"
     inkscape:window-y="72"
     inkscape:window-maximized="0" />
  <metadata
     id="metadata7">
    <rdf:RDF>
      <cc:Work
         rdf:about="">
        <dc:format>image/svg+xml</dc:format>
        <dc:type
           rdf:resource="http://purl.org/dc/dcmitype/StillImage" />
        <dc:title></dc:title>
      </cc:Work>
    </rdf:RDF>
  </metadata>
  <g
     inkscape:label="Layer 1"
     inkscape:groupmode="layer"
     id="layer1">
    <rect
       style="fill:#808000;fill-opacity:0.44604318999999998;stroke:none"
       id="rect2989"
       width="177.14285"
       height="251.42857"
       x="60"
       y="115.21937" />
    <rect
       style="fill:#00ffff;fill-opacity:0.44604319;stroke:none"
       id="rect3759"
       width="162.85713"
       height="100"
       x="274.28568"
       y="118.07647" />
    <rect
       style="fill:#00ffff;fill-opacity:0.44604319;stroke:none"
       id="rect3761"
       width="162.85715"
       height="105.71429"
       x="274.28571"
       y="263.79074" />
    <rect
       style="fill:#ff0000;fill-opacity:0.44604319;stroke:none"
       id="rect3763"
       width="540"
       height="60.000004"
       x="54.285717"
       y="435.21933" />
    <rect
       style="fill:#00ffff;fill-opacity:0.44604319;stroke:none"
       id="rect3767"
       width="125.71429"
       height="245.71428"
       x="471.42856"
       y="120.93361" />
    <text
       xml:space="preserve"
       style="font-size:40px;font-style:normal;font-weight:normal;line-height:125%;letter-spacing:0px;word-spacing:0px;fill:#000000;fill-opacity:1;stroke:none;font-family:Sans"
       x="88.571426"
       y="246.6479"
       id="text3775"
       sodipodi:linespacing="125%"><tspan
         sodipodi:role="line"
         id="tspan3777"
         x="88.571426"
         y="246.6479">字体库</tspan></text>
    <text
       xml:space="preserve"
       style="font-size:35.60263443px;font-style:normal;font-weight:normal;line-height:125%;letter-spacing:0px;word-spacing:0px;fill:#000000;fill-opacity:1;stroke:none;font-family:Sans"
       x="283.14914"
       y="170.7733"
       id="text3779"
       sodipodi:linespacing="125%"><tspan
         sodipodi:role="line"
         id="tspan3781"
         x="283.14914"
         y="170.7733">字体匹配</tspan></text>
    <text
       xml:space="preserve"
       style="font-size:30.05257225px;font-style:normal;font-weight:normal;line-height:125%;letter-spacing:0px;word-spacing:0px;fill:#000000;fill-opacity:1;stroke:none;font-family:Sans"
       x="280.66055"
       y="327.33929"
       id="text3783"
       sodipodi:linespacing="125%"><tspan
         sodipodi:role="line"
         id="tspan3785"
         x="280.66055"
         y="327.33929">字体光栅化</tspan></text>
    <text
       xml:space="preserve"
       style="font-size:40px;font-style:normal;font-weight:normal;line-height:125%;letter-spacing:0px;word-spacing:0px;fill:#000000;fill-opacity:1;stroke:none;font-family:Sans"
       x="498.57141"
       y="249.50504"
       id="text3787"
       sodipodi:linespacing="125%"><tspan
         sodipodi:role="line"
         id="tspan3789"
         x="498.57141"
         y="249.50504">程序</tspan></text>
    <text
       xml:space="preserve"
       style="font-size:40px;font-style:normal;font-weight:normal;line-height:125%;letter-spacing:0px;word-spacing:0px;fill:#000000;fill-opacity:1;stroke:none;font-family:Sans"
       x="200"
       y="482.36218"
       id="text3791"
       sodipodi:linespacing="125%"><tspan
         sodipodi:role="line"
         id="tspan3793"
         x="200"
         y="482.36218">图形渲染系统</tspan></text>
    <path
       style="fill:#808000;fill-opacity:0.44604319;stroke:none"
       id="path3795"
       d="m 472.54096,169.50504 c -0.97593,0.003 -1.95084,0.0101 -2.92581,-0.0352 -1.55237,-0.1005 -3.0986,-0.26729 -4.64578,-0.42579 -2.10777,-0.21635 -4.22061,-0.37778 -6.33377,-0.53058 -2.32997,-0.16609 -4.66214,-0.29824 -6.99472,-0.42143 -2.45311,-0.12794 -4.90741,-0.23096 -7.36194,-0.32709 -2.54622,-0.0986 -5.0931,-0.1786 -7.64011,-0.25334 -2.50472,-0.11367 -5.01115,-0.0669 -7.5168,-0.0251 -3.93905,0.0656 -4.08176,-8.50465 -0.14271,-8.57024 l 0,0 c 2.63702,-0.0439 5.27491,-0.0894 7.91097,0.0276 2.57503,0.0756 5.14992,0.15653 7.72415,0.25622 2.49343,0.0977 4.98663,0.20242 7.47862,0.33246 2.38802,0.12618 4.77564,0.26165 7.16099,0.43183 2.19829,0.1591 4.39622,0.32761 6.58889,0.55287 1.4131,0.14479 2.82492,0.29942 4.24255,0.39407 0.8159,0.0632 1.63785,2.9e-4 2.45547,0.0223 3.9396,0 3.9396,8.57143 0,8.57143 z"
       inkscape:connector-curvature="0" />
    <path
       style="fill:#808000;fill-opacity:0.44604319;stroke:none"
       id="path3799"
       d="m 475.36936,316.6479 c -1.12684,0.0308 -2.24874,-0.0911 -3.36983,-0.18566 -1.60914,-0.12308 -3.22104,-0.22047 -4.83494,-0.23857 -2.27286,0.003 -4.54553,0.0399 -6.81818,0.0683 -2.35125,-0.0126 -4.69824,0.12277 -7.04519,0.24529 -2.4724,0.13179 -4.94578,0.24353 -7.41951,0.34679 -2.58522,0.11608 -5.17005,0.20657 -7.75796,0.2027 -0.42461,-0.003 -0.84921,-0.007 -1.27382,-0.01 -3.93947,-0.0313 -3.8713,-8.60249 0.0682,-8.57116 l 0,0 c 0.40688,0.003 0.81376,0.007 1.22064,0.01 2.46373,0.005 4.92434,-0.0863 7.38555,-0.19525 2.44392,-0.10198 4.88749,-0.21237 7.33009,-0.34259 2.46009,-0.12842 4.92042,-0.26691 7.38495,-0.25628 2.34727,-0.0293 4.69459,-0.0683 7.0421,-0.0681 1.8154,0.0281 3.62892,0.12305 5.43884,0.26812 0.88176,0.0744 1.76283,0.18453 2.64909,0.15531 3.93959,0 3.93959,8.57143 0,8.57143 z"
       inkscape:connector-curvature="0" />
    <path
       style="fill:#d40000;fill-opacity:0.44604319;stroke:none"
       id="path3803"
       d="m 274.81782,178.0469 c -0.98097,0.15669 -1.97075,0.24723 -2.95996,0.33262 -1.50543,0.1184 -3.01385,0.19257 -4.52214,0.26292 -1.91164,0.0822 -3.82349,0.16686 -5.73706,0.171 -2.16081,-0.0285 -4.32103,-0.0903 -6.48141,-0.14048 -2.35815,-0.0546 -4.71657,-0.0958 -7.07502,-0.13477 -2.54623,-0.0421 -5.09259,-0.0746 -7.63898,-0.10484 -1.33546,-0.0157 -2.67094,-0.0294 -4.00641,-0.0432 -3.93939,-0.0405 -3.85136,-8.61144 0.088,-8.57097 l 0,0 c 1.34001,0.0138 2.68003,0.0276 4.02002,0.0433 2.55977,0.0304 5.11952,0.0631 7.67912,0.10541 2.37753,0.0393 4.75504,0.0809 7.13226,0.13591 2.09297,0.0486 4.18578,0.1076 6.27912,0.13817 1.78152,0.003 3.56147,-0.0922 5.34131,-0.16171 1.39637,-0.065 2.79287,-0.13312 4.18674,-0.24069 0.76339,-0.0654 1.52744,-0.13213 2.28524,-0.24752 3.886,-0.64766 5.29513,7.80714 1.40914,8.45481 z"
       inkscape:connector-curvature="0" />
    <path
       style="fill:#ffff00;fill-opacity:0.44604318999999998;stroke:none"
       id="path3805"
       d="m 273.47842,328.00465 c -1.26274,-0.19319 -2.53025,-0.35063 -3.79934,-0.49603 -1.77351,-0.23744 -3.56243,-0.2778 -5.34845,-0.32757 -2.11096,-0.0537 -4.22231,-0.0899 -6.33366,-0.1245 -2.28705,-0.0369 -4.57422,-0.0659 -6.86142,-0.0929 -2.41735,-0.0282 -4.83476,-0.0507 -7.25218,-0.0718 -2.50373,-0.0612 -5.00632,0.0331 -7.50839,0.11292 -1.79429,0.0588 -3.58874,0.11288 -5.38324,0.16526 -3.93791,0.11494 -4.18799,-8.45284 -0.25007,-8.56778 l 0,0 c 1.78673,-0.0522 3.5734,-0.10599 5.35993,-0.16454 2.61798,-0.0835 5.23662,-0.17875 7.85633,-0.11697 2.42631,0.0211 4.8526,0.0437 7.27884,0.072 2.30031,0.0272 4.6006,0.0563 6.90078,0.0934 2.1443,0.0352 4.28862,0.072 6.43253,0.12669 2.03242,0.0569 4.0675,0.1146 6.08595,0.38008 1.34762,0.1548 2.69338,0.32336 4.03457,0.52632 3.9,0.55714 2.68782,9.04242 -1.21218,8.48528 z"
       inkscape:connector-curvature="0" />
    <path
       style="fill:#ffff00;fill-opacity:0.44604319;stroke:none"
       id="path3807"
       d="m 531.42857,359.70625 c -0.10135,2.23371 -0.30392,4.46476 -0.45156,6.69705 -0.20781,3.37114 -0.50716,6.73596 -0.76972,10.10318 -0.2585,3.31765 -0.48248,6.63782 -0.69331,9.95879 -0.20258,3.21298 -0.37535,6.42772 -0.53801,9.64294 -0.15724,3.13144 -0.29063,6.26399 -0.41608,9.39684 -0.12193,3.06865 -0.22493,6.13801 -0.32173,9.20754 -0.0945,3.0203 -0.17404,6.04104 -0.24876,9.06189 -0.0732,2.98304 -0.13462,5.96634 -0.1923,8.94972 -0.0379,1.97232 -0.071,3.94473 -0.10329,5.91714 -0.0645,3.93907 -8.63482,3.79864 -8.57028,-0.14042 l 0,0 c 0.0325,-1.98085 0.0657,-3.96169 0.10374,-5.94244 0.058,-2.99878 0.11977,-5.99751 0.19332,-8.99596 0.0752,-3.04026 0.1553,-6.08041 0.2504,-9.12012 0.0976,-3.09381 0.20142,-6.18743 0.32434,-9.28035 0.12668,-3.16289 0.26138,-6.32549 0.42016,-9.48696 0.16455,-3.2519 0.33935,-6.50331 0.54429,-9.75295 0.21349,-3.36208 0.44029,-6.72333 0.70202,-10.08204 0.25999,-3.33376 0.55665,-6.66512 0.76248,-10.00274 0.13531,-2.04375 0.3083,-4.08902 0.43286,-6.13111 0,-3.9396 8.57143,-3.9396 8.57143,0 z"
       inkscape:connector-curvature="0" />
    <path
       style="fill:#ffff00;fill-opacity:0.44604318999999998;stroke:none"
       id="path3811"
       d="m 341.42857,365.593 c 0.032,1.56687 -0.0449,3.13093 -0.12555,4.69511 -0.11039,2.04818 -0.20314,4.09722 -0.28789,6.1466 -0.0767,2.28132 -0.19076,4.5623 -0.19918,6.84517 0.0201,2.51584 0.0716,5.03132 0.11058,7.54693 -0.008,2.91439 -0.0918,5.82796 -0.15782,8.74146 -0.0654,2.8691 -0.12137,5.73841 -0.17359,8.60778 -0.0121,2.91907 -0.16657,5.83386 -0.31046,8.74856 -0.10022,2.85896 -0.34053,5.7093 -0.56531,8.56034 -0.21136,2.80669 -0.53454,5.60355 -0.81386,8.40404 -0.16187,1.8578 -0.40698,3.70696 -0.6368,5.5572 -0.48561,3.90955 -8.99167,2.853 -8.50606,-1.05656 l 0,0 c 0.22132,-1.78174 0.45904,-3.56228 0.61376,-5.35144 0.27351,-2.74151 0.59029,-5.47945 0.79805,-8.22695 0.21819,-2.76745 0.45353,-5.53403 0.54921,-8.30928 0.13951,-2.82588 0.29137,-5.65173 0.30146,-8.4819 0.0525,-2.88206 0.10866,-5.76405 0.17437,-8.64584 0.0635,-2.80462 0.14262,-5.60927 0.15665,-8.41469 -0.0399,-2.574 -0.0933,-5.14788 -0.1115,-7.72215 0.0144,-2.38684 0.12059,-4.77177 0.2064,-7.15693 0.086,-2.0785 0.18003,-4.15667 0.29195,-6.23397 0.0732,-1.41724 0.14756,-2.83369 0.11416,-4.25348 0,-3.9396 8.57143,-3.9396 8.57143,0 z"
       inkscape:connector-curvature="0" />
    <text
       xml:space="preserve"
       style="font-size:26.25845909px;font-style:normal;font-weight:normal;line-height:125%;letter-spacing:0px;word-spacing:0px;fill:#000000;fill-opacity:1;stroke:none;font-family:Sans"
       x="101.03812"
       y="225.9003"
       id="text3813"
       sodipodi:linespacing="125%"
       transform="scale(0.72311655,1.3829029)"><tspan
         sodipodi:role="line"
         id="tspan3815"
         x="101.03812"
         y="225.9003">/usr/share/fonts/*</tspan></text>
  </g>
</svg>
